# xmcd
#
# Track frame offsets: 
#        150
#        20120
#        38809
#        58731
#        77220
#        97150
#        125308
#        143561
#        164290
#        194809
#
# Disc length: 2937 seconds
#
# Revision: 0
# Processed by: cddbd v1.5.2PL0 Copyright (c) Steve Scherf et al.
# Submitted via: ExactAudioCopy v0.99pb4
#
DISCID=8e0b770a
DTITLE=Cal Williams Jr - Morning Star
DYEAR=2009
DGENRE=Blues
TTITLE0=Greyhound
TTITLE1=Mexico City Blues
TTITLE2=Lonesome Valley
TTITLE3=The Forest
TTITLE4=Charlie's Blues
TTITLE5=I Shall Be Released
TTITLE6=Morning Star
TTITLE7=Cocaine
TTITLE8=Death Letter Blues
TTITLE9=Soezilig
EXTD=
EXTT0=
EXTT1=
EXTT2=
EXTT3=
EXTT4=
EXTT5=
EXTT6=
EXTT7=
EXTT8=
EXTT9=
PLAYORDER=
